<?xml version="1.0" encoding="utf-8"?>
<!-- Generator: Adobe Illustrator 16.0.0, SVG Export Plug-In . SVG Version: 6.00 Build 0)  -->
<!DOCTYPE svg PUBLIC "-//W3C//DTD SVG 1.1//EN" "http://www.w3.org/Graphics/SVG/1.1/DTD/svg11.dtd">
<svg version="1.1" id="Layer_1" xmlns="http://www.w3.org/2000/svg" xmlns:xlink="http://www.w3.org/1999/xlink" x="0px" y="0px"
	 width="335.986px" height="235.19px" viewBox="0 0 335.986 235.19" enable-background="new 0 0 335.986 235.19"
	 xml:space="preserve">
<g>
	<g>
		<rect y="0.087" fill="#98C3CC" width="335.986" height="235.19"/>
	</g>
</g>
<g opacity="0.5">
	<polygon fill="#C4DCE0" points="0.653,235.191 93.831,0 74.447,0 0.653,186.264 	"/>
	<polygon fill="#C4DCE0" points="192.473,235.363 285.719,0 266.334,0 173.088,235.363 	"/>
	<polygon fill="#C4DCE0" points="0.653,141.951 56.891,0 45.504,0 0.653,113.21 	"/>
	<polygon fill="#C4DCE0" points="76.379,235.363 169.625,0 158.239,0 64.993,235.363 	"/>
	<polygon fill="#C4DCE0" points="296.174,235.363 335.986,134.874 335.986,106.131 284.787,235.363 	"/>
	<polygon fill="#C4DCE0" points="218.201,235.363 311.447,0 300.061,0 206.814,235.363 	"/>
</g>
<g>
	<circle fill="#132D44" cx="287.035" cy="177.43" r="30.468"/>
</g>
<g>
	<circle fill="#FFFFFF" cx="286.921" cy="177.431" r="22.675"/>
</g>
<g>
	<circle fill="#FF6057" cx="286.922" cy="177.431" r="18.707"/>
</g>
<g>
	<path fill="#FFFFFF" d="M312.873,188.831c-0.535,1.178-1.635,1.832-2.457,1.456l-4.176-1.896c-0.822-0.376-1.055-1.633-0.52-2.81
		l0,0c0.535-1.179,1.635-1.831,2.459-1.455l4.174,1.896C313.176,186.396,313.406,187.654,312.873,188.831L312.873,188.831z"/>
</g>
<g>
	<path fill="#BB3D35" d="M290.215,172.896c0,3.99-3.236,7.226-7.225,7.226c-3.994,0-7.227-3.235-7.227-7.226
		s3.232-7.225,7.227-7.225C286.979,165.672,290.215,168.906,290.215,172.896z"/>
</g>
<g>
	<circle fill="#BB3D35" cx="279.558" cy="180.122" r="5.192"/>
</g>
<g>
	<circle fill="#BB3D35" cx="290.823" cy="183.382" r="2.712"/>
</g>
<g>
	<path fill="#FFFDFB" d="M87.13,121.72v18.779c0,1.507,1.229,2.735,2.733,2.735h156.72c1.506,0,2.732-1.229,2.732-2.735V121.72
		H87.13z"/>
	<path fill="#534B62" d="M249.316,34.824c0-1.504-1.227-2.734-2.732-2.734H89.864c-1.504,0-2.733,1.23-2.733,2.734v86.896h162.186
		V34.824z"/>
</g>
<rect x="142.744" y="143.234" fill="#534B62" width="51.592" height="15.838"/>
<rect x="130.345" y="159.072" fill="#FFFFFF" width="75.682" height="7.416"/>
<rect x="142.744" y="143.234" fill="#132D44" width="51.592" height="5.725"/>
<path fill="#CDCDCD" d="M173.363,132.311c0,2.839-2.305,5.139-5.139,5.139c-2.841,0-5.141-2.3-5.141-5.139
	c0-2.838,2.3-5.14,5.141-5.14C171.059,127.171,173.363,129.473,173.363,132.311z"/>
<rect x="94.884" y="39.892" fill="#132D44" width="146.71" height="73.811"/>
<polyline opacity="0.1" fill="#FFFFFF" points="94.884,113.702 94.884,39.892 241.594,39.892 "/>
<rect x="204.871" y="17.212" fill="#FFFFFF" width="102.133" height="73.408"/>
<rect x="209.141" y="20.612" fill="#132D44" width="93.594" height="57.503"/>
<g>
	<path fill="#132D44" d="M297.785,85.779h-63.391c-0.762,0-1.379-0.617-1.379-1.377c0-0.761,0.617-1.377,1.379-1.377h63.391
		c0.76,0,1.377,0.616,1.377,1.377C299.162,85.162,298.545,85.779,297.785,85.779z"/>
</g>
<path fill="#FF6057" d="M279.744,84.403c0,1.642-1.34,2.974-2.982,2.974c-1.646,0-2.982-1.332-2.982-2.974
	c0-1.65,1.336-2.982,2.982-2.982C278.404,81.421,279.744,82.753,279.744,84.403z"/>
<path fill="#FF6057" d="M273.779,50.066c0,9.648-7.812,17.463-17.463,17.463c-9.645,0-17.473-7.814-17.473-17.463
	c0-9.641,7.828-17.471,17.473-17.471C265.967,32.596,273.779,40.426,273.779,50.066z"/>
<path fill-rule="evenodd" clip-rule="evenodd" fill="#FFFDFB" d="M265.184,50.788l-12.125,8.822
	c-0.258,0.179-0.582,0.277-0.918,0.289c-0.029,0-0.051,0.018-0.084,0.018c-0.688,0-1.234-0.546-1.234-1.235V41.447
	c0-0.68,0.547-1.229,1.227-1.239l0,0h0.008c0,0,0.012,0.01,0.02,0.01c0.359,0,0.713,0.097,0.982,0.301l12.125,8.808
	C265.738,49.738,265.738,50.391,265.184,50.788z"/>
<g>
	<path fill="#132D44" d="M219.566,84.466c0,2.071-1.678,3.75-3.746,3.75c-2.07,0-3.748-1.679-3.748-3.75
		c0-2.065,1.678-3.746,3.748-3.746C217.889,80.72,219.566,82.4,219.566,84.466z"/>
	<path fill-rule="evenodd" clip-rule="evenodd" fill="none" stroke="#FFFDFB" stroke-width="0.761" stroke-miterlimit="10" d="
		M218.109,84.569l-2.832,2.058c-0.057,0.045-0.139,0.067-0.213,0.07c-0.01,0-0.014,0.006-0.023,0.006
		c-0.156,0-0.285-0.13-0.285-0.29v-4.024c0-0.162,0.129-0.294,0.285-0.294l0,0l0,0c0.004,0,0.004,0,0.004,0
		c0.086,0.008,0.17,0.029,0.232,0.073l2.832,2.062C218.238,84.324,218.238,84.476,218.109,84.569z"/>
</g>
<g>
	<path fill="#132D44" d="M229.006,84.466c0,2.071-1.676,3.75-3.742,3.75c-2.07,0-3.748-1.679-3.748-3.75
		c0-2.065,1.678-3.746,3.748-3.746C227.33,80.72,229.006,82.4,229.006,84.466z"/>
	<g>
		
			<line fill="none" stroke="#FFFDFB" stroke-width="0.761" stroke-miterlimit="10" x1="224.393" y1="82.095" x2="224.393" y2="86.703"/>
		
			<line fill="none" stroke="#FFFDFB" stroke-width="0.761" stroke-miterlimit="10" x1="226.422" y1="82.095" x2="226.422" y2="86.703"/>
	</g>
</g>
<g opacity="0.5">
	<rect x="112.229" y="53.826" fill-rule="evenodd" clip-rule="evenodd" fill="#98C3CC" width="74.323" height="7.625"/>
	<g>
		<rect x="146.25" y="64.696" fill-rule="evenodd" clip-rule="evenodd" fill="#98C3CC" width="11.831" height="11.465"/>
		<rect x="160.484" y="64.696" fill-rule="evenodd" clip-rule="evenodd" fill="#98C3CC" width="11.834" height="11.465"/>
		<rect x="146.25" y="78.826" fill-rule="evenodd" clip-rule="evenodd" fill="#98C3CC" width="11.831" height="11.466"/>
		<rect x="160.484" y="78.826" fill-rule="evenodd" clip-rule="evenodd" fill="#98C3CC" width="11.834" height="11.466"/>
		<rect x="146.25" y="92.792" fill-rule="evenodd" clip-rule="evenodd" fill="#98C3CC" width="11.831" height="11.47"/>
		<rect x="160.484" y="92.792" fill-rule="evenodd" clip-rule="evenodd" fill="#98C3CC" width="11.834" height="11.47"/>
	</g>
	<g>
		<rect x="160.484" y="64.696" fill-rule="evenodd" clip-rule="evenodd" fill="#98C3CC" width="11.833" height="11.465"/>
		<rect x="174.717" y="64.696" fill-rule="evenodd" clip-rule="evenodd" fill="#98C3CC" width="11.836" height="11.465"/>
		<rect x="160.484" y="78.826" fill-rule="evenodd" clip-rule="evenodd" fill="#98C3CC" width="11.833" height="11.466"/>
		<rect x="174.717" y="78.826" fill-rule="evenodd" clip-rule="evenodd" fill="#98C3CC" width="11.836" height="11.466"/>
		<rect x="160.484" y="92.792" fill-rule="evenodd" clip-rule="evenodd" fill="#98C3CC" width="11.833" height="11.47"/>
		<rect x="174.717" y="92.792" fill-rule="evenodd" clip-rule="evenodd" fill="#98C3CC" width="11.836" height="11.47"/>
	</g>
	<rect x="112.229" y="64.696" fill="#98C3CC" width="29.654" height="4.196"/>
	<rect x="132.496" y="71.741" fill="#98C3CC" width="9.388" height="4.194"/>
	<rect x="112.229" y="71.741" fill="#98C3CC" width="17.377" height="4.194"/>
	<rect x="112.229" y="78.858" fill="#98C3CC" width="23.43" height="4.196"/>
	<rect x="112.229" y="85.902" fill="#98C3CC" width="29.654" height="4.197"/>
	<rect x="125.434" y="93.021" fill="#98C3CC" width="16.449" height="4.197"/>
	<rect x="112.229" y="99.843" fill="#98C3CC" width="29.654" height="4.419"/>
</g>
<g>
	<rect x="98.92" y="175.882" fill="#132D44" width="141.064" height="44.731"/>
	<g>
		<path fill="#FFFFFF" d="M109.41,195.269c0,0.817-0.662,1.479-1.48,1.479h-4.521c-0.817,0-1.48-0.662-1.48-1.479v-4.522
			c0-0.815,0.663-1.479,1.48-1.479h4.521c0.818,0,1.48,0.664,1.48,1.479V195.269z"/>
		<path fill="#FFFFFF" d="M119.736,195.269c0,0.817-0.662,1.479-1.479,1.479h-4.521c-0.818,0-1.481-0.662-1.481-1.479v-4.522
			c0-0.815,0.663-1.479,1.481-1.479h4.521c0.817,0,1.479,0.664,1.479,1.479V195.269z"/>
		<path fill="#FFFFFF" d="M130.062,195.269c0,0.817-0.662,1.479-1.479,1.479h-4.522c-0.816,0-1.479-0.662-1.479-1.479v-4.522
			c0-0.815,0.663-1.479,1.479-1.479h4.522c0.817,0,1.479,0.664,1.479,1.479V195.269z"/>
		<path fill="#FFFFFF" d="M140.388,195.269c0,0.817-0.662,1.479-1.48,1.479h-4.521c-0.816,0-1.479-0.662-1.479-1.479v-4.522
			c0-0.815,0.663-1.479,1.479-1.479h4.521c0.818,0,1.48,0.664,1.48,1.479V195.269z"/>
		<path fill="#FFFFFF" d="M150.714,195.269c0,0.817-0.662,1.479-1.479,1.479h-4.521c-0.817,0-1.48-0.662-1.48-1.479v-4.522
			c0-0.815,0.663-1.479,1.48-1.479h4.521c0.817,0,1.479,0.664,1.479,1.479V195.269z"/>
		<path fill="#FFFFFF" d="M161.041,195.269c0,0.817-0.662,1.479-1.48,1.479h-4.521c-0.818,0-1.479-0.662-1.479-1.479v-4.522
			c0-0.815,0.661-1.479,1.479-1.479h4.521c0.818,0,1.48,0.664,1.48,1.479V195.269z"/>
		<path fill="#FFFFFF" d="M171.367,195.269c0,0.817-0.662,1.479-1.48,1.479h-4.522c-0.816,0-1.479-0.662-1.479-1.479v-4.522
			c0-0.815,0.662-1.479,1.479-1.479h4.522c0.818,0,1.48,0.664,1.48,1.479V195.269z"/>
		<path fill="#FFFFFF" d="M181.693,195.269c0,0.817-0.662,1.479-1.48,1.479h-4.521c-0.816,0-1.48-0.662-1.48-1.479v-4.522
			c0-0.815,0.664-1.479,1.48-1.479h4.521c0.818,0,1.48,0.664,1.48,1.479V195.269z"/>
		<path fill="#FFFFFF" d="M192.02,195.269c0,0.817-0.662,1.479-1.48,1.479h-4.521c-0.818,0-1.48-0.662-1.48-1.479v-4.522
			c0-0.815,0.662-1.479,1.48-1.479h4.521c0.818,0,1.48,0.664,1.48,1.479V195.269z"/>
		<path fill="#FFFFFF" d="M202.346,195.269c0,0.817-0.662,1.479-1.48,1.479h-4.521c-0.818,0-1.48-0.662-1.48-1.479v-4.522
			c0-0.815,0.662-1.479,1.48-1.479h4.521c0.818,0,1.48,0.664,1.48,1.479V195.269z"/>
	</g>
	<g>
		<path fill="#FFFFFF" d="M109.41,205.749c0,0.817-0.662,1.479-1.48,1.479h-4.521c-0.817,0-1.48-0.662-1.48-1.479v-4.521
			c0-0.819,0.663-1.48,1.48-1.48h4.521c0.818,0,1.48,0.661,1.48,1.48V205.749z"/>
		<path fill="#FFFFFF" d="M119.736,205.749c0,0.817-0.662,1.479-1.479,1.479h-4.521c-0.818,0-1.481-0.662-1.481-1.479v-4.521
			c0-0.819,0.663-1.48,1.481-1.48h4.521c0.817,0,1.479,0.661,1.479,1.48V205.749z"/>
		<path fill="#FFFFFF" d="M130.062,205.749c0,0.817-0.662,1.479-1.479,1.479h-4.522c-0.816,0-1.479-0.662-1.479-1.479v-4.521
			c0-0.819,0.663-1.48,1.479-1.48h4.522c0.817,0,1.479,0.661,1.479,1.48V205.749z"/>
		<path fill="#FFFFFF" d="M140.388,205.749c0,0.817-0.662,1.479-1.48,1.479h-4.521c-0.816,0-1.479-0.662-1.479-1.479v-4.521
			c0-0.819,0.663-1.48,1.479-1.48h4.521c0.818,0,1.48,0.661,1.48,1.48V205.749z"/>
		<path fill="#FFFFFF" d="M150.714,205.749c0,0.817-0.662,1.479-1.479,1.479h-4.521c-0.817,0-1.48-0.662-1.48-1.479v-4.521
			c0-0.819,0.663-1.48,1.48-1.48h4.521c0.817,0,1.479,0.661,1.479,1.48V205.749z"/>
		<path fill="#FFFFFF" d="M161.041,205.749c0,0.817-0.662,1.479-1.48,1.479h-4.521c-0.818,0-1.479-0.662-1.479-1.479v-4.521
			c0-0.819,0.661-1.48,1.479-1.48h4.521c0.818,0,1.48,0.661,1.48,1.48V205.749z"/>
		<path fill="#FFFFFF" d="M171.367,205.749c0,0.817-0.662,1.479-1.48,1.479h-4.522c-0.816,0-1.479-0.662-1.479-1.479v-4.521
			c0-0.819,0.662-1.48,1.479-1.48h4.522c0.818,0,1.48,0.661,1.48,1.48V205.749z"/>
		<path fill="#FFFFFF" d="M181.693,205.749c0,0.817-0.662,1.479-1.48,1.479h-4.521c-0.816,0-1.48-0.662-1.48-1.479v-4.521
			c0-0.819,0.664-1.48,1.48-1.48h4.521c0.818,0,1.48,0.661,1.48,1.48V205.749z"/>
		<path fill="#FFFFFF" d="M192.02,205.749c0,0.817-0.662,1.479-1.48,1.479h-4.521c-0.818,0-1.48-0.662-1.48-1.479v-4.521
			c0-0.819,0.662-1.48,1.48-1.48h4.521c0.818,0,1.48,0.661,1.48,1.48V205.749z"/>
		<path fill="#FFFFFF" d="M202.346,205.749c0,0.817-0.662,1.479-1.48,1.479h-4.521c-0.818,0-1.48-0.662-1.48-1.479v-4.521
			c0-0.819,0.662-1.48,1.48-1.48h4.521c0.818,0,1.48,0.661,1.48,1.48V205.749z"/>
	</g>
	<g>
		<path fill="#FFFFFF" d="M109.41,216.23c0,0.817-0.662,1.48-1.48,1.48h-4.521c-0.817,0-1.48-0.663-1.48-1.48v-4.522
			c0-0.817,0.663-1.479,1.48-1.479h4.521c0.818,0,1.48,0.662,1.48,1.479V216.23z"/>
		<path fill="#FFFFFF" d="M119.736,216.23c0,0.817-0.662,1.48-1.479,1.48h-4.521c-0.818,0-1.481-0.663-1.481-1.48v-4.522
			c0-0.817,0.663-1.479,1.481-1.479h4.521c0.817,0,1.479,0.662,1.479,1.479V216.23z"/>
		<path fill="#FFFFFF" d="M179.391,216.23c0,0.817-0.662,1.48-1.479,1.48H124.06c-0.816,0-1.479-0.663-1.479-1.48v-4.522
			c0-0.817,0.663-1.479,1.479-1.479h53.852c0.816,0,1.479,0.662,1.479,1.479V216.23z"/>
		<path fill="#FFFFFF" d="M181.693,216.23c0,0.817-0.662,1.48-1.48,1.48h-4.521c-0.816,0-1.48-0.663-1.48-1.48v-4.522
			c0-0.817,0.664-1.479,1.48-1.479h4.521c0.818,0,1.48,0.662,1.48,1.479V216.23z"/>
		<path fill="#FFFFFF" d="M192.02,216.23c0,0.817-0.662,1.48-1.48,1.48h-4.521c-0.818,0-1.48-0.663-1.48-1.48v-4.522
			c0-0.817,0.662-1.479,1.48-1.479h4.521c0.818,0,1.48,0.662,1.48,1.479V216.23z"/>
		<path fill="#FFFFFF" d="M202.346,216.23c0,0.817-0.662,1.48-1.48,1.48h-4.521c-0.818,0-1.48-0.663-1.48-1.48v-4.522
			c0-0.817,0.662-1.479,1.48-1.479h4.521c0.818,0,1.48,0.662,1.48,1.479V216.23z"/>
	</g>
	<g>
		<path fill="#FFFFFF" d="M109.41,184.787c0,0.817-0.662,1.479-1.48,1.479h-4.521c-0.817,0-1.48-0.662-1.48-1.479v-4.521
			c0-0.817,0.663-1.479,1.48-1.479h4.521c0.818,0,1.48,0.662,1.48,1.479V184.787z"/>
		<path fill="#FFFFFF" d="M119.736,184.787c0,0.817-0.662,1.479-1.479,1.479h-4.521c-0.818,0-1.481-0.662-1.481-1.479v-4.521
			c0-0.817,0.663-1.479,1.481-1.479h4.521c0.817,0,1.479,0.662,1.479,1.479V184.787z"/>
		<path fill="#FFFFFF" d="M130.062,184.787c0,0.817-0.662,1.479-1.479,1.479h-4.522c-0.816,0-1.479-0.662-1.479-1.479v-4.521
			c0-0.817,0.663-1.479,1.479-1.479h4.522c0.817,0,1.479,0.662,1.479,1.479V184.787z"/>
		<path fill="#FFFFFF" d="M140.388,184.787c0,0.817-0.662,1.479-1.48,1.479h-4.521c-0.816,0-1.479-0.662-1.479-1.479v-4.521
			c0-0.817,0.663-1.479,1.479-1.479h4.521c0.818,0,1.48,0.662,1.48,1.479V184.787z"/>
		<path fill="#FFFFFF" d="M150.714,184.787c0,0.817-0.662,1.479-1.479,1.479h-4.521c-0.817,0-1.48-0.662-1.48-1.479v-4.521
			c0-0.817,0.663-1.479,1.48-1.479h4.521c0.817,0,1.479,0.662,1.479,1.479V184.787z"/>
		<path fill="#FFFFFF" d="M161.041,184.787c0,0.817-0.662,1.479-1.48,1.479h-4.521c-0.818,0-1.479-0.662-1.479-1.479v-4.521
			c0-0.817,0.661-1.479,1.479-1.479h4.521c0.818,0,1.48,0.662,1.48,1.479V184.787z"/>
		<path fill="#FFFFFF" d="M171.367,184.787c0,0.817-0.662,1.479-1.48,1.479h-4.522c-0.816,0-1.479-0.662-1.479-1.479v-4.521
			c0-0.817,0.662-1.479,1.479-1.479h4.522c0.818,0,1.48,0.662,1.48,1.479V184.787z"/>
		<path fill="#FFFFFF" d="M181.693,184.787c0,0.817-0.662,1.479-1.48,1.479h-4.521c-0.816,0-1.48-0.662-1.48-1.479v-4.521
			c0-0.817,0.664-1.479,1.48-1.479h4.521c0.818,0,1.48,0.662,1.48,1.479V184.787z"/>
		<path fill="#FFFFFF" d="M192.02,184.787c0,0.817-0.662,1.479-1.48,1.479h-4.521c-0.818,0-1.48-0.662-1.48-1.479v-4.521
			c0-0.817,0.662-1.479,1.48-1.479h4.521c0.818,0,1.48,0.662,1.48,1.479V184.787z"/>
		<path fill="#FFFFFF" d="M202.346,184.787c0,0.817-0.662,1.479-1.48,1.479h-4.521c-0.818,0-1.48-0.662-1.48-1.479v-4.521
			c0-0.817,0.662-1.479,1.48-1.479h4.521c0.818,0,1.48,0.662,1.48,1.479V184.787z"/>
	</g>
	<g>
		<path fill="#FFFFFF" d="M216.322,195.269c0,0.817-0.664,1.479-1.48,1.479h-4.521c-0.818,0-1.48-0.662-1.48-1.479v-4.522
			c0-0.815,0.662-1.479,1.48-1.479h4.521c0.816,0,1.48,0.664,1.48,1.479V195.269z"/>
		<path fill="#FFFFFF" d="M226.648,195.269c0,0.817-0.662,1.479-1.482,1.479h-4.52c-0.818,0-1.48-0.662-1.48-1.479v-4.522
			c0-0.815,0.662-1.479,1.48-1.479h4.52c0.82,0,1.482,0.664,1.482,1.479V195.269z"/>
		<path fill="#FFFFFF" d="M236.973,195.269c0,0.817-0.662,1.479-1.48,1.479h-4.52c-0.816,0-1.48-0.662-1.48-1.479v-4.522
			c0-0.815,0.664-1.479,1.48-1.479h4.52c0.818,0,1.48,0.664,1.48,1.479V195.269z"/>
	</g>
	<g>
		<path fill="#FFFFFF" d="M226.648,205.749c0,0.817-0.662,1.479-1.482,1.479h-4.52c-0.818,0-1.48-0.662-1.48-1.479v-4.521
			c0-0.819,0.662-1.48,1.48-1.48h4.52c0.82,0,1.482,0.661,1.482,1.48V205.749z"/>
	</g>
	<g>
		<path fill="#FFFFFF" d="M216.322,216.23c0,0.817-0.664,1.48-1.48,1.48h-4.521c-0.818,0-1.48-0.663-1.48-1.48v-4.522
			c0-0.817,0.662-1.479,1.48-1.479h4.521c0.816,0,1.48,0.662,1.48,1.479V216.23z"/>
		<path fill="#FFFFFF" d="M226.648,216.23c0,0.817-0.662,1.48-1.482,1.48h-4.52c-0.818,0-1.48-0.663-1.48-1.48v-4.522
			c0-0.817,0.662-1.479,1.48-1.479h4.52c0.82,0,1.482,0.662,1.482,1.479V216.23z"/>
		<path fill="#FFFFFF" d="M236.973,216.23c0,0.817-0.662,1.48-1.48,1.48h-4.52c-0.816,0-1.48-0.663-1.48-1.48v-4.522
			c0-0.817,0.664-1.479,1.48-1.479h4.52c0.818,0,1.48,0.662,1.48,1.479V216.23z"/>
	</g>
	<g>
		<path fill="#FFFFFF" d="M216.322,184.787c0,0.817-0.664,1.479-1.48,1.479h-4.521c-0.818,0-1.48-0.662-1.48-1.479v-4.521
			c0-0.817,0.662-1.479,1.48-1.479h4.521c0.816,0,1.48,0.662,1.48,1.479V184.787z"/>
		<path fill="#FFFFFF" d="M226.648,184.787c0,0.817-0.662,1.479-1.482,1.479h-4.52c-0.818,0-1.48-0.662-1.48-1.479v-4.521
			c0-0.817,0.662-1.479,1.48-1.479h4.52c0.82,0,1.482,0.662,1.482,1.479V184.787z"/>
		<path fill="#FFFFFF" d="M236.973,184.787c0,0.817-0.662,1.479-1.48,1.479h-4.52c-0.816,0-1.48-0.662-1.48-1.479v-4.521
			c0-0.817,0.664-1.479,1.48-1.479h4.52c0.818,0,1.48,0.662,1.48,1.479V184.787z"/>
	</g>
</g>
<rect x="20.322" y="93.08" fill="#FFFFFF" width="102.132" height="73.408"/>
<rect x="24.592" y="96.48" fill="#132D44" width="93.593" height="57.503"/>
<g>
	<path fill="#132D44" d="M113.236,161.647H49.845c-0.761,0-1.378-0.617-1.378-1.377c0-0.761,0.617-1.377,1.378-1.377h63.391
		c0.761,0,1.377,0.616,1.377,1.377C114.613,161.03,113.997,161.647,113.236,161.647z"/>
</g>
<path fill="#FF6057" d="M63.664,160.271c0,1.642-1.34,2.974-2.982,2.974c-1.646,0-2.982-1.332-2.982-2.974
	c0-1.65,1.337-2.982,2.982-2.982C62.324,157.289,63.664,158.621,63.664,160.271z"/>
<g>
	<path fill="#132D44" d="M35.018,160.334c0,2.071-1.678,3.75-3.747,3.75c-2.07,0-3.747-1.679-3.747-3.75
		c0-2.065,1.677-3.746,3.747-3.746C33.339,156.588,35.018,158.269,35.018,160.334z"/>
	<path fill-rule="evenodd" clip-rule="evenodd" fill="none" stroke="#FFFDFB" stroke-width="0.761" stroke-miterlimit="10" d="
		M33.56,160.438l-2.831,2.058c-0.058,0.045-0.139,0.067-0.214,0.07c-0.01,0-0.014,0.006-0.023,0.006c-0.157,0-0.286-0.13-0.286-0.29
		v-4.024c0-0.162,0.129-0.294,0.286-0.294l0,0l0,0c0.004,0,0.004,0,0.004,0c0.085,0.008,0.17,0.029,0.232,0.073l2.831,2.062
		C33.689,160.192,33.689,160.344,33.56,160.438z"/>
</g>
<g>
	<path fill="#132D44" d="M44.458,160.334c0,2.071-1.677,3.75-3.742,3.75c-2.071,0-3.748-1.679-3.748-3.75
		c0-2.065,1.677-3.746,3.748-3.746C42.78,156.588,44.458,158.269,44.458,160.334z"/>
	<g>
		
			<line fill="none" stroke="#FFFDFB" stroke-width="0.761" stroke-miterlimit="10" x1="39.843" y1="157.963" x2="39.843" y2="162.571"/>
		
			<line fill="none" stroke="#FFFDFB" stroke-width="0.761" stroke-miterlimit="10" x1="41.874" y1="157.963" x2="41.874" y2="162.571"/>
	</g>
</g>
<rect x="279.502" y="102.933" fill="#FFFFFF" width="39.32" height="29.377"/>
<g>
	<path fill="#132D44" d="M308.979,116.447c-0.182-4.438-3.615-7.978-7.838-7.978c-2.805,0-5.258,1.565-6.648,3.914
		c-0.217-0.039-0.436-0.062-0.66-0.062c-2.145,0-3.889,1.796-3.99,4.049h-0.438c-2.26,0-4.092,1.943-4.092,4.343l0,0
		c0,2.4,1.832,4.346,4.092,4.346c6.479,0.629,12.766,0.677,18.812,0c2.26,0,4.092-1.945,4.092-4.346l0,0
		C312.309,118.591,310.873,116.826,308.979,116.447z"/>
</g>
<rect x="38.038" y="183.56" fill="#FFFFFF" width="39.321" height="29.377"/>
<rect x="20.322" y="16.792" fill="#FFFFFF" width="50.27" height="37.557"/>
<g>
	<path fill="#132D44" d="M61.34,27.179c-0.342-1.338-1.414-2.391-2.768-2.659c-8.702-1.704-17.404-1.697-26.105,0.018
		c-1.321,0.261-2.372,1.268-2.743,2.561c-1.621,5.666-1.608,11.356-0.004,17.075c0.371,1.33,1.468,2.355,2.827,2.591
		c8.615,1.498,17.231,1.509,25.846,0.03c1.433-0.245,2.601-1.296,2.952-2.705C62.75,38.425,62.762,32.79,61.34,27.179z
		 M52.432,41.257h-5.028h-0.83h-7.809c-0.627,0-1.049-0.633-0.816-1.215c0.903-2.252,2.401-4.503,4.49-6.754
		c0.344-0.372,0.95-0.37,1.293,0.001c1.481,1.602,2.652,3.205,3.543,4.81c0.5-0.75,1.097-1.498,1.791-2.248
		c0.234-0.25,0.644-0.25,0.875,0.003c1.414,1.524,2.426,3.05,3.045,4.578C53.145,40.826,52.857,41.257,52.432,41.257z
		 M50.938,34.037c-1.233,0-2.229-0.999-2.229-2.229s0.996-2.229,2.229-2.229c1.229,0,2.228,0.999,2.228,2.229
		S52.167,34.037,50.938,34.037z"/>
</g>
<g>
	<path fill="#132D44" d="M57.293,208.716c4.619-1.896,9.239-5.042,13.859-9.433c0.636-0.606,0.665-1.493,0.106-2.147
		c-3.495-4.115-8.184-7.246-14.067-9.394c-1.261-0.461-2.712,0.201-2.944,1.321c-0.084,0.426-0.152,0.852-0.229,1.278
		c-2.607,0.106-5.211,0.337-7.815,0.73c-0.689,0.103-1.263,0.523-1.449,1.081c-1.345,4.053-1.36,8.084,0.004,12.095
		c0.184,0.54,0.735,0.953,1.404,1.067c2.614,0.446,5.227,0.707,7.841,0.826c0.077,0.433,0.144,0.865,0.23,1.298
		C54.474,208.601,56.013,209.244,57.293,208.716z"/>
</g>
<path fill="#E57373" d="M71.655,124.96c-3.566,0-6.456-2.895-6.456-6.46c0-3.566,2.89-6.457,6.456-6.457v-6.462
	c-7.134,0-12.917,5.784-12.917,12.919c0,7.132,12.917,25.836,12.917,25.836V124.96z"/>
<path fill="#FAFAFA" d="M78.115,118.5c0,3.565-2.893,6.46-6.46,6.46c-3.566,0-6.456-2.895-6.456-6.46
	c0-3.566,2.89-6.457,6.456-6.457C75.222,112.043,78.115,114.934,78.115,118.5"/>
<path fill="#F44336" d="M71.655,124.96c3.567,0,6.46-2.895,6.46-6.46c0-3.566-2.893-6.457-6.46-6.457v-6.462
	c7.137,0,12.918,5.784,12.918,12.919c0,7.132-12.918,25.836-12.918,25.836V124.96z"/>
<polyline opacity="0.1" fill="#FFFFFF" points="209.141,78.115 209.141,20.612 302.734,20.612 "/>
<polyline opacity="0.1" fill="#FFFFFF" points="24.592,153.983 24.592,96.48 118.185,96.48 "/>
</svg>
